<svg width="60" height="56" viewBox="0 0 60 56" fill="none" xmlns="http://www.w3.org/2000/svg">
<path d="M29.8452 28H54.2242" stroke="#4124F4" stroke-width="2" stroke-linecap="round" stroke-linejoin="round"/>
<path d="M44.8663 43.75V49H14.8614V7H44.8663V12.25H48.6169V5.25C48.6169 4.78587 48.4193 4.34075 48.0676 4.01256C47.716 3.68437 47.239 3.5 46.7416 3.5H12.9861C12.4888 3.5 12.0118 3.68437 11.6601 4.01256C11.3084 4.34075 11.1108 4.78587 11.1108 5.25V50.75C11.1108 51.2141 11.3084 51.6592 11.6601 51.9874C12.0118 52.3156 12.4888 52.5 12.9861 52.5H46.7416C47.239 52.5 47.716 52.3156 48.0676 51.9874C48.4193 51.6592 48.6169 51.2141 48.6169 50.75V43.75H44.8663Z" fill="#4124F4"/>
<path d="M54.2241 28L46.7229 35" stroke="#4124F4" stroke-width="2" stroke-linecap="round" stroke-linejoin="round"/>
<path d="M54.2241 28L46.7229 21" stroke="#4124F4" stroke-width="2" stroke-linecap="round" stroke-linejoin="round"/>
<path d="M46.7229 14.1575V10.6575" stroke="#4124F4" stroke-width="2" stroke-linecap="round" stroke-linejoin="round"/>
<path d="M46.7229 45.5V42" stroke="#4124F4" stroke-width="2" stroke-linecap="round" stroke-linejoin="round"/>
</svg>
