<svg width="76" height="76" viewBox="0 0 76 76" fill="none" xmlns="http://www.w3.org/2000/svg">
<path d="M68 38H53C48.875 38 45.5 41.375 45.5 45.5V68C45.5 72.125 48.875 75.5 53 75.5H68C72.125 75.5 75.5 72.125 75.5 68V45.5C75.5 41.375 72.125 38 68 38Z" fill="url(#paint0_linear_118_21)"/>
<path d="M23 0.5H8C3.875 0.5 0.5 3.875 0.5 8V30.5C0.5 34.625 3.875 38 8 38H23C27.125 38 30.5 34.625 30.5 30.5V8C30.5 3.875 27.125 0.5 23 0.5Z" fill="url(#paint1_linear_118_21)"/>
<path d="M68 0.5H53C48.875 0.5 45.5 3.875 45.5 8V15.5C45.5 19.625 48.875 23 53 23H68C72.125 23 75.5 19.625 75.5 15.5V8C75.5 3.875 72.125 0.5 68 0.5Z" fill="url(#paint2_linear_118_21)"/>
<path d="M23 53H8C3.875 53 0.5 56.375 0.5 60.5V68C0.5 72.125 3.875 75.5 8 75.5H23C27.125 75.5 30.5 72.125 30.5 68V60.5C30.5 56.375 27.125 53 23 53Z" fill="url(#paint3_linear_118_21)"/>
<defs>
<linearGradient id="paint0_linear_118_21" x1="72.5652" y1="55.9348" x2="53" y2="55.9348" gradientUnits="userSpaceOnUse">
<stop stop-color="#4225F4"/>
<stop offset="1" stop-color="#2488D1" stop-opacity="0.84"/>
</linearGradient>
<linearGradient id="paint1_linear_118_21" x1="0.826087" y1="19.087" x2="26.2609" y2="19.087" gradientUnits="userSpaceOnUse">
<stop stop-color="#F32222"/>
<stop offset="1" stop-color="#E67171"/>
</linearGradient>
<linearGradient id="paint2_linear_118_21" x1="72.5652" y1="11.2609" x2="53" y2="11.2609" gradientUnits="userSpaceOnUse">
<stop stop-color="#4225F4"/>
<stop offset="1" stop-color="#2488D1" stop-opacity="0.84"/>
</linearGradient>
<linearGradient id="paint3_linear_118_21" x1="0.826087" y1="64.1522" x2="26.2609" y2="64.1522" gradientUnits="userSpaceOnUse">
<stop stop-color="#F32222"/>
<stop offset="1" stop-color="#E67171"/>
</linearGradient>
</defs>
</svg>
